<?xml version="1.0" encoding="utf-8"?>
<svg version="1.1" xmlns:xlink="http://www.w3.org/1999/xlink" width="10px" height="10px" xmlns="http://www.w3.org/2000/svg">
  <g transform="matrix(1 0 0 1 -128 -386 )">
    <path d="M 133 387  C 135.24 387  137 388.76  137 391  C 137 393.24  135.24 395  133 395  C 130.76 395  129 393.24  129 391  C 129 388.76  130.76 387  133 387  Z " fill-rule="nonzero" fill="#ffffff" stroke="none" />
    <path d="M 133 387  C 135.24 387  137 388.76  137 391  C 137 393.24  135.24 395  133 395  C 130.76 395  129 393.24  129 391  C 129 388.76  130.76 387  133 387  Z " stroke-width="2" stroke="#00a854" fill="none" />
  </g>
</svg>