<?xml version="1.0" encoding="utf-8"?>
<svg version="1.1" xmlns:xlink="http://www.w3.org/1999/xlink" width="10px" height="10px" xmlns="http://www.w3.org/2000/svg">
  <g transform="matrix(1 0 0 1 -128 -340 )">
    <path d="M 133 341  C 135.24 341  137 342.76  137 345  C 137 347.24  135.24 349  133 349  C 130.76 349  129 347.24  129 345  C 129 342.76  130.76 341  133 341  Z " fill-rule="nonzero" fill="#ffffff" stroke="none" />
    <path d="M 133 341  C 135.24 341  137 342.76  137 345  C 137 347.24  135.24 349  133 349  C 130.76 349  129 347.24  129 345  C 129 342.76  130.76 341  133 341  Z " stroke-width="2" stroke="#f04134" fill="none" />
  </g>
</svg>