<?xml version="1.0" encoding="utf-8"?>
<svg version="1.1" xmlns:xlink="http://www.w3.org/1999/xlink" width="13px" height="12px" xmlns="http://www.w3.org/2000/svg">
  <g transform="matrix(1 0 0 1 -2198 -652 )">
    <path d="M 11.3585858538411 1.14141413411458  L 9.33417508575665 1.14141413411458  L 9.33417508575666 0.767676764756945  C 9.33417508575666 0.561267310784264  9.15290316872431 0.393939387369792  8.92929292692057 0.393939387369792  C 8.70568268511684 0.393939387369792  8.52441076808449 0.561267310784264  8.52441076808449 0.767676764756945  L 8.52441076808449 1.14141413411458  L 4.47558923191551 1.14141413411458  L 4.47558923191551 0.767676764756945  C 4.47558923191551 0.561267310784264  4.29431731488316 0.393939387369792  4.07070707307943 0.393939387369792  C 3.84709683127569 0.393939387369792  3.66582491424335 0.561267310784264  3.66582491424335 0.767676764756945  L 3.66582491424335 1.14141413411458  L 1.64141414615885 1.14141413411458  C 0.746973188552157 1.14141413411458  0.0218855282118052 1.8107258205826  0.0218855282118052 2.63636362760417  L 0.0218855282118057 10.4848484804687  C 0.0218855282118057 11.3104862874903  0.746973188552159 11.9797979739583  1.64141414615885 11.9797979739583  L 11.3585858538411 11.9797979739583  C 12.2530268114478 11.9797979739583  12.9781144717882 11.3104862874903  12.9781144717882 10.4848484804688  L 12.9781144717882 2.63636364366319  C 12.9781144717882 1.8107258205826  12.2530268114478 1.14141413411458  11.3585858538411 1.14141413411458  Z M 0.83164982848669 3.75757575173611  L 0.831649828486689 2.63636364366319  C 0.831649828486689 2.22354473571783  1.19419366255138 1.88888888888889  1.64141414615885 1.88888888888889  L 3.66582491424335 1.88888888888889  L 3.66582491424335 2.26262625824653  C 3.66582491424335 2.46903571221921  3.84709683127569 2.63636363563368  4.07070707307943 2.63636363563368  C 4.29431731488316 2.63636363563368  4.47558923191551 2.46903571221921  4.47558923191551 2.26262625824653  L 4.47558923191551 1.88888888888889  L 8.52441076808449 1.88888888888889  L 8.52441076808449 2.26262625824653  C 8.52441076808449 2.46903571221921  8.70568268511684 2.63636363563368  8.92929292692057 2.63636363563368  C 9.15290316872431 2.63636363563368  9.33417508575666 2.46903571221921  9.33417508575666 2.26262625824653  L 9.33417508575665 1.88888888888889  L 11.3585858538411 1.88888888888889  C 11.8058063374486 1.88888888888889  12.1683501715133 2.22354473571783  12.1683501715133 2.63636364366319  L 12.1683501715133 3.75757575173611  L 0.83164982848669 3.75757575173611  Z M 12.1683501715133 4.50505050651042  L 12.1683501715133 10.4848484804687  C 12.1683501715133 10.8976673884141  11.8058063374486 11.2323232352431  11.3585858538411 11.2323232352431  L 1.64141414615885 11.2323232352431  C 1.19419366255138 11.2323232352431  0.831649828486689 10.8976673884141  0.83164982848669 10.4848484804688  L 0.83164982848669 4.50505050651042  L 12.1683501715133 4.50505050651042  Z " fill-rule="nonzero" fill="#dcdfe6" stroke="none" transform="matrix(1 0 0 1 2198 652 )" />
  </g>
</svg>