<?xml version="1.0" encoding="utf-8"?>
<svg version="1.1" xmlns:xlink="http://www.w3.org/1999/xlink" width="18px" height="12px" xmlns="http://www.w3.org/2000/svg">
  <g transform="matrix(1 0 0 1 -2250 -837 )">
    <path d="M 9.67287959552557 10.9083784017857  C 9.5014983371804 11.0915987628348  9.26692104119318 11.1948453247768  9.0220595768821 11.1948453247768  C 8.77722920348011 11.1948453247768  8.54262081658381 11.0915987628348  8.37123955823864 10.9083784017857  L 0.473533844637784 2.46634381305804  C 0.121232886008522 2.08981281863839  0.127074029829546 1.48537120479911  0.486521039595171 1.11632654966518  C 0.845936988813921 0.747314465959818  1.42293507475142 0.753368648437499  1.77517388192472 1.12993218247768  L 9.0220595768821 8.87628930970982  L 16.2689453022017 1.12993218247768  C 16.621184109375 0.753336077008931  17.1981200438565 0.747184243861607  17.5575981445312 1.11632654966518  C 17.917076245206 1.48540374441965  17.9228862981179 2.08981281863839  17.5705853394886 2.46634381305804  L 9.67287959552557 10.9083784017857  Z " fill-rule="nonzero" fill="#9da7b2" stroke="none" transform="matrix(1 0 0 1 2250 837 )" />
  </g>
</svg>