<?xml version="1.0" encoding="utf-8"?>
<svg version="1.1" xmlns:xlink="http://www.w3.org/1999/xlink" width="17px" height="17px" xmlns="http://www.w3.org/2000/svg">
  <g transform="matrix(1 0 0 1 -2775 -818 )">
    <path d="M 2.569625 1.375  C 1.909375 1.375  1.375 1.909375  1.375 2.569625  L 1.375 14.430375  C 1.375 15.090625  1.909375 15.625  2.569625 15.625  L 14.430375 15.625  C 15.090625 15.625  15.625 15.090625  15.625 14.430375  L 15.625 2.569625  C 15.625 1.909375  15.090625 1.375  14.430375 1.375  L 2.569625 1.375  Z M 0.1875 14.430375  L 0.1875 2.569625  C 0.1875 1.253875  1.2526875 0.1875  2.569625 0.1875  L 14.430375 0.1875  C 15.746125 0.1875  16.8125 1.2526875  16.8125 2.569625  L 16.8125 14.430375  C 16.8125001975216 14.4307709320628  16.8125002962825 14.4311668641704  16.8125002962825 14.4315627962825  C 16.8125002962825 15.7465182678327  15.7465182678327 16.8125002962825  14.4315627962825 16.8125002962825  C 14.431166864169 16.8125002962825  14.4307709320642 16.8125001975216  14.430375 16.8125  L 2.569625 16.8125  C 2.56922906793719 16.8125001975216  2.56883313582961 16.8125002962825  2.56843720371753 16.8125002962825  C 1.25348173216727 16.8125002962825  0.187499703717528 15.7465182678327  0.187499703717528 14.4315627962825  C 0.187499703717528 14.431166864169  0.187499802478355 14.4307709320642  0.1875 14.430375  Z " fill-rule="nonzero" fill="#aaaaaa" stroke="none" transform="matrix(1 0 0 1 2775 818 )" />
  </g>
</svg>