<?xml version="1.0" encoding="utf-8"?>
<svg version="1.1" xmlns:xlink="http://www.w3.org/1999/xlink" width="11px" height="11px" xmlns="http://www.w3.org/2000/svg">
  <g transform="matrix(1 0 0 1 -545 -1399 )">
    <path d="M 10.704875 10.1564375  C 10.7839781302022 10.2799226101767  10.7842950665271 10.4380738363229  10.7056875 10.561875  C 10.6241351246117 10.6884276762836  10.4832944450135 10.764217758769  10.33275 10.7625625  L 0.6534375 10.7625625  C 0.502893054986496 10.764217758769  0.362052375388261 10.6884276762836  0.2805 10.561875  C 0.203411542520773 10.4388943280215  0.203411542520773 10.2826681719785  0.2805 10.1596875  C 0.361167428066208 10.0317757023493  0.502217666880199 9.95464365454471  0.6534375 9.95575  L 10.3319375 9.95575  C 10.4825200777436 9.95393964735285  10.6234310552294 10.0297675589846  10.704875 10.1564375  Z M 9.632375 3.56625  L 5.771375 7.4248125  C 5.31980579138616 7.83663989176418  4.75248466794963 8.09959323247701  4.146375 8.178  L 3.096625 8.26575  C 2.588 8.3071875  2.3085 8.33075  2.2556875 8.33075  C 2.14769315399751 8.33062648146618  2.04408390167564 8.28801535234225  1.96725 8.212125  C 1.8299375 8.075625  1.8299375 8.075625  1.912 7.0851875  L 1.99975 6.0370625  C 2.07843652574865 5.43087391667319  2.34167148264603 4.86355719922194  2.75375 4.4120625  L 6.61475 0.555124999999998  C 7.09465495273824 0.100016637411106  7.84678254726176 0.100016637411106  8.3266875 0.555124999999998  L 9.632375 1.86  C 10.1026136854009 2.33155245219885  10.1026136854009 3.09469754780114  9.632375 3.56625  Z M 9.0611875 2.4279375  L 7.7546875 1.1230625  C 7.5967198239818 0.968223206546071  7.3439051760182 0.968223206546071  7.1859375 1.1230625  L 3.3265625 4.9791875  C 3.04703173677753 5.29417865138231  2.86621008089992 5.68435788070572  2.8065625 6.10125  L 2.718 7.1485625  L 2.690375 7.4881875  L 3.03 7.4605625  L 4.07975 7.3728125  C 4.49654618561325 7.31284136017001  4.88663648616956 7.13206091675506  5.2018125 6.8528125  L 9.062 2.9966875  C 9.21638884324292 2.83827778486739  9.21566651361219 2.58546241411302  9.060375 2.4279375  Z " fill-rule="nonzero" fill="#7f7f7f" stroke="none" transform="matrix(1 0 0 1 545 1399 )" />
  </g>
</svg>