<?xml version="1.0" encoding="utf-8"?>
<svg version="1.1" xmlns:xlink="http://www.w3.org/1999/xlink" width="320px" height="28px" xmlns="http://www.w3.org/2000/svg">
  <g transform="matrix(1 0 0 1 -193 -402 )">
    <path d="M 194 406  A 3 3 0 0 1 197 403 L 509 403  A 3 3 0 0 1 512 406 L 512 426  A 3 3 0 0 1 509 429 L 197 429  A 3 3 0 0 1 194 426 L 194 406  Z " fill-rule="nonzero" fill="#ffffff" stroke="none" fill-opacity="0" />
    <path d="M 193.5 406  A 3.5 3.5 0 0 1 197 402.5 L 509 402.5  A 3.5 3.5 0 0 1 512.5 406 L 512.5 426  A 3.5 3.5 0 0 1 509 429.5 L 197 429.5  A 3.5 3.5 0 0 1 193.5 426 L 193.5 406  Z " stroke-width="1" stroke="#ffffff" fill="none" stroke-opacity="0.2" />
  </g>
</svg>