<?xml version="1.0" encoding="utf-8"?>
<svg version="1.1" xmlns:xlink="http://www.w3.org/1999/xlink" width="64px" height="36px" xmlns="http://www.w3.org/2000/svg">
  <defs>
    <filter x="947px" y="53px" width="64px" height="36px" filterUnits="userSpaceOnUse" id="filter145">
      <feOffset dx="0" dy="0" in="SourceAlpha" result="shadowOffsetInner" />
      <feGaussianBlur stdDeviation="2" in="shadowOffsetInner" result="shadowGaussian" />
      <feComposite in2="shadowGaussian" operator="atop" in="SourceAlpha" result="shadowComposite" />
      <feColorMatrix type="matrix" values="0 0 0 0 0  0 0 0 0 0  0 0 0 0 0  0 0 0 0.149019607843137 0  " in="shadowComposite" />
    </filter>
    <g id="widget146">
      <path d="M 951.5 61  A 3.5 3.5 0 0 1 955 57.5 L 1003 57.5  A 3.5 3.5 0 0 1 1006.5 61 L 1006.5 81  A 3.5 3.5 0 0 1 1003 84.5 L 955 84.5  A 3.5 3.5 0 0 1 951.5 81 L 951.5 61  Z " fill-rule="nonzero" fill="#000000" stroke="none" fill-opacity="0.427450980392157" />
      <path d="M 951.5 61  A 3.5 3.5 0 0 1 955 57.5 L 1003 57.5  A 3.5 3.5 0 0 1 1006.5 61 L 1006.5 81  A 3.5 3.5 0 0 1 1003 84.5 L 955 84.5  A 3.5 3.5 0 0 1 951.5 81 L 951.5 61  Z " stroke-width="1" stroke="#d9d9d9" fill="none" />
    </g>
  </defs>
  <g transform="matrix(1 0 0 1 -947 -53 )">
    <use xlink:href="#widget146" filter="url(#filter145)" />
    <use xlink:href="#widget146" />
  </g>
</svg>