<?xml version="1.0" encoding="utf-8"?>
<svg version="1.1" xmlns:xlink="http://www.w3.org/1999/xlink" width="12px" height="12px" viewBox="238 103  12 12" xmlns="http://www.w3.org/2000/svg">
  <path d="M 244 103  C 247.36 103  250 105.64  250 109  C 250 112.36  247.36 115  244 115  C 240.64 115  238 112.36  238 109  C 238 105.64  240.64 103  244 103  Z " fill-rule="nonzero" fill="#f0f0f0" stroke="none" />
  <path d="M 244 103.5  C 247.08 103.5  249.5 105.92  249.5 109  C 249.5 112.08  247.08 114.5  244 114.5  C 240.92 114.5  238.5 112.08  238.5 109  C 238.5 105.92  240.92 103.5  244 103.5  Z " stroke-width="1" stroke="#797979" fill="none" />
  <path d="M 244 112  C 242.32 112  241 110.68  241 109  C 241 107.32  242.32 106  244 106  C 245.68 106  247 107.32  247 109  C 247 110.68  245.68 112  244 112  " fill-rule="nonzero" fill="#797979" stroke="none" />
</svg>