<?xml version="1.0" encoding="utf-8"?>
<svg version="1.1" xmlns:xlink="http://www.w3.org/1999/xlink" width="12px" height="12px" viewBox="169 103  12 12" xmlns="http://www.w3.org/2000/svg">
  <path d="M 175 103  C 178.36 103  181 105.64  181 109  C 181 112.36  178.36 115  175 115  C 171.64 115  169 112.36  169 109  C 169 105.64  171.64 103  175 103  Z " fill-rule="nonzero" fill="#f0f0f0" stroke="none" />
  <path d="M 175 103.5  C 178.08 103.5  180.5 105.92  180.5 109  C 180.5 112.08  178.08 114.5  175 114.5  C 171.92 114.5  169.5 112.08  169.5 109  C 169.5 105.92  171.92 103.5  175 103.5  Z " stroke-width="1" stroke="#797979" fill="none" />
  <path d="M 175 112  C 173.32 112  172 110.68  172 109  C 172 107.32  173.32 106  175 106  C 176.68 106  178 107.32  178 109  C 178 110.68  176.68 112  175 112  " fill-rule="nonzero" fill="#797979" stroke="none" />
</svg>