<?xml version="1.0" encoding="utf-8"?>
<svg version="1.1" xmlns:xlink="http://www.w3.org/1999/xlink" width="1570px" height="811px" xmlns="http://www.w3.org/2000/svg">
  <defs>
    <mask fill="white" id="clip33">
      <path d="M 0 811  L 0 0  L 1570 0  L 1570 811  L 232.745614035088 811  L 76.6637426900626 811  L 0 811  Z " fill-rule="evenodd" />
    </mask>
  </defs>
  <g transform="matrix(1 0 0 1 0 -52 )">
    <path d="M 0 811  L 0 0  L 1570 0  L 1570 811  L 232.745614035088 811  L 76.6637426900626 811  L 0 811  Z " fill-rule="nonzero" fill="#ffffff" stroke="none" transform="matrix(1 0 0 1 0 52 )" />
    <path d="M 0 811  L 0 0  L 1570 0  L 1570 811  L 232.745614035088 811  L 76.6637426900626 811  L 0 811  Z " stroke-width="2" stroke="#d7d7d7" fill="none" transform="matrix(1 0 0 1 0 52 )" mask="url(#clip33)" />
  </g>
</svg>