<?xml version="1.0" encoding="utf-8"?>
<svg version="1.1" xmlns:xlink="http://www.w3.org/1999/xlink" width="20px" height="20px" preserveAspectRatio="xMinYMid meet" viewBox="358 965  20 18" xmlns="http://www.w3.org/2000/svg">
  <path d="M 1381 432  L 1498 432  A 5 5 0 0 1 1503 437 L 1503 579  A 3 3 0 0 1 1506 582 A 3 3 0 0 1 1503 585 L 1503 934  A 5 5 0 0 1 1498 939 L 373 939  A 5 5 0 0 0 368 944 L 368 961  A 3 3 0 0 1 371 964 A 3 3 0 0 1 368 967 L 368 974  " stroke-width="2" stroke="#1f7aff" fill="none" />
  <path d="M 372.292893218813 968.892893218813  L 368 973.185786437627  L 363.707106781187 968.892893218813  L 362.292893218813 970.307106781187  L 367.292893218813 975.307106781187  L 368 976.014213562373  L 368.707106781187 975.307106781187  L 373.707106781187 970.307106781187  L 372.292893218813 968.892893218813  Z " fill-rule="nonzero" fill="#1f7aff" stroke="none" />
</svg>