<?xml version="1.0" encoding="utf-8"?>
<svg version="1.1" xmlns:xlink="http://www.w3.org/1999/xlink" width="13px" height="15px" xmlns="http://www.w3.org/2000/svg">
  <g transform="matrix(1 0 0 1 -1910 -519 )">
    <path d="M 12.88560546875 14.117578125  C 12.88560546875 14.4362109375  12.6275 14.69431640625  12.309130859375 14.69431640625  C 11.99052734375 14.69431640625  11.732421875 14.4362109375  11.732421875 14.1175927734375  L 11.727236328125 14.064052734375  C 11.727236328125 14.0412890625  11.7313818359375 14.01931640625  11.7337109375 13.99681640625  C 11.3737109375 11.46568359375  9.2036328125 9.60568359375  6.5612890625 9.5764599609375  C 6.5400927734375 9.5769873046875  6.5199072265625 9.5798291015625  6.498447265625 9.5798291015625  C 6.4775 9.5798291015625  6.4573291015625 9.5769873046875  6.4363818359375 9.5764599609375  C 3.82431640625 9.6054345703125  1.6749072265625 11.42431640625  1.2787109375 13.911474609375  C 1.29189453125 13.9603564453125  1.3012109375 14.010791015625  1.3012109375 14.063818359375  L 1.306630859375 14.1181201171875  C 1.306630859375 14.4416455078125  1.04439453125 14.703896484375  0.7211328125 14.703896484375  C 0.39787109375 14.703896484375  0.135341796875 14.4416455078125  0.135341796875 14.11810546875  L 0.1348291015625 14.11294921875  L 0.1236962890625 14.11294921875  C 0.125263671875 14.0958837890625  0.1286181640625 14.079580078125  0.1304345703125 14.0627783203125  C 0.1304345703125 14.0144091796875  0.1381982421875 13.9686328125  0.1490380859375 13.9236328125  C 0.44931640625 11.5900927734375  2.01294921875 9.703447265625  4.1411328125 8.890869140625  C 2.902080078125 8.096923828125  2.09416015625 6.6941455078125  2.09416015625 5.091474609375  C 2.09416015625 2.612607421875  4.020107421875 0.603120117187501  6.498974609375 0.603120117187501  C 8.977607421875 0.603120117187501  10.9038037109375 2.6125927734375  10.9038037109375 5.091474609375  C 10.9038037109375 6.6936328125  10.0966455078125 8.0961328125  8.8581201171875 8.890107421875  C 10.9715673828125 9.6962109375  12.5281982421875 11.5608837890625  12.8452783203125 13.8711328125  C 12.86673828125 13.9316455078125  12.8809619140625 13.9960546875  12.8809619140625 14.064052734375  L 12.8856201171875 14.117607421875  Z M 9.891025390625 5.092763671875  C 9.891025390625 3.2185400390625  8.37189453125 1.69939453125  6.4976708984375 1.69939453125  C 4.623447265625 1.69939453125  3.10431640625 3.2187890625  3.10431640625 5.092763671875  C 3.10431640625 6.9667236328125  4.6237109375 8.485869140625  6.4976708984375 8.485869140625  C 8.371630859375 8.485869140625  9.8910400390625 6.9667236328125  9.8910400390625 5.092763671875  Z " fill-rule="nonzero" fill="#d9dce2" stroke="none" transform="matrix(1 0 0 1 1910 519 )" />
  </g>
</svg>