<?xml version="1.0" encoding="utf-8"?>
<svg version="1.1" xmlns:xlink="http://www.w3.org/1999/xlink" width="14px" height="14px" xmlns="http://www.w3.org/2000/svg">
  <g transform="matrix(1 0 0 1 -2646 -521 )">
    <path d="M 12.3184 9.8252  L 12.3184 13.9148  L 8.24 13.9148  L 8.24 9.2336  L 5.7608 9.2336  L 5.7608 13.9148  L 1.6816 13.9148  L 1.6816 9.8248  C 1.2436 9.9988  0.714 9.8736  0.3816 9.4944  C -0.0735999999999999 8.976  -0.0735999999999999 8.1628  0.382 7.6432  L 7.0004 0.0855999999999999  L 13.6188 7.6436  C 14.0732 8.1628  14.0732 8.976  13.6188 9.4944  C 13.2876 9.8744  12.7564 9.9996  12.3184 9.8252  Z M 9.04 8.4336  L 9.04 13.1148  L 11.5184 13.1148  L 11.5184 7.8936  L 12.4596 8.9672  C 12.6168 9.146  12.8636 9.1444  13.0168 8.968  C 13.2068 8.7516  13.2064 8.3864  13.0172 8.1704  L 7.0004 1.3  L 0.9836 8.1704  C 0.794 8.3868  0.794 8.7512  0.9832 8.9668  C 1.1396 9.1452  1.3856 9.1448  1.5404 8.9672  L 2.482 7.8936  L 2.482 13.1148  L 4.9608 13.1148  L 4.9608 8.4336  L 9.04 8.4336  Z " fill-rule="nonzero" fill="#d9dce2" stroke="none" transform="matrix(1 0 0 1 2646 521 )" />
  </g>
</svg>