<?xml version="1.0" encoding="utf-8"?>
<svg version="1.1" xmlns:xlink="http://www.w3.org/1999/xlink" width="15px" height="15px" xmlns="http://www.w3.org/2000/svg">
  <g transform="matrix(1 0 0 1 -1908 -662 )">
    <path d="M 14.625 4.33333332714844  C 14.625 2.9875  13.5958333271484 1.95833332714844  12.25 1.95833332714844  L 11.4583333271484 1.95833332714844  L 11.4583333271484 1.16666667285156  C 11.4583333271484 0.691666672851563  11.1416666542969 0.375  10.6666666728516 0.375  C 10.1916666914063 0.375  9.875 0.691666672851563  9.875 1.16666667285156  L 9.875 1.95833332714844  L 5.125 1.95833332714844  L 5.125 1.16666667285156  C 5.125 0.691666672851563  4.80833332714844 0.375  4.33333332714844 0.375  C 3.85833332714844 0.375  3.54166665429687 0.691666672851563  3.54166667285156 1.16666667285156  L 3.54166667285156 1.95833332714844  L 2.75 1.95833332714844  C 1.40416667285156 1.95833332714844  0.375 2.9875  0.375 4.33333332714844  L 0.375 12.25  C 0.375 13.5958333271484  1.40416667285156 14.625  2.75 14.625  L 12.25 14.625  C 13.5958333271484 14.625  14.625 13.5958333271484  14.625 12.25  L 14.625 4.33333332714844  Z M 13.0416666728516 7.5  L 13.0416666728516 12.25  C 13.0416666728516 12.725  12.725 13.0416666728516  12.25 13.0416666728516  L 2.75 13.0416666728516  C 2.275 13.0416666728516  1.95833332714844 12.725  1.95833332714844 12.25  L 1.95833332714844 7.5  L 13.0416666728516 7.5  Z M 13.0416666728516 6  L 1.95833332714844 6  L 1.95833332714844 4.33333332714844  C 1.95833332714844 3.85833332714844  2.275 3.54166665429687  2.75 3.54166667285156  L 3.54166667285156 3.54166667285156  L 3.54166667285156 4.33333332714844  C 3.54166667285156 4.80833332714844  3.85833334570312 5.125  4.33333332714844 5.125  C 4.80833330859375 5.125  5.125 4.80833332714844  5.125 4.33333332714844  L 5.125 3.54166667285156  L 9.875 3.54166667285156  L 9.875 4.33333332714844  C 9.875 4.80833332714844  10.1916666728516 5.125  10.6666666728516 5.125  C 11.1416666728516 5.125  11.4583333457031 4.80833332714844  11.4583333271484 4.33333332714844  L 11.4583333271484 3.54166667285156  L 12.25 3.54166667285156  C 12.725 3.54166667285156  13.0416666728516 3.85833334570312  13.0416666728516 4.33333332714844  L 13.0416666728516 6  Z " fill-rule="nonzero" fill="#d9dce2" stroke="none" transform="matrix(1 0 0 1 1908 662 )" />
  </g>
</svg>