<?xml version="1.0" encoding="utf-8"?>
<svg version="1.1" xmlns:xlink="http://www.w3.org/1999/xlink" width="18px" height="18px" xmlns="http://www.w3.org/2000/svg">
  <g transform="matrix(1 0 0 1 -2268 -2129 )">
    <path d="M 17.75 7.6425  C 17.7480608586398 6.35455113254437  17.2303446426969 5.12103597455886  16.3125 4.2175  C 15.3914057492533 3.30494157777536  14.1466003132098 2.79398714428023  12.85 2.79625  L 12.835 2.79625  C 12.20625 2.79625  11.59125 2.915  11.0075 3.14625  C 10.4022494315206 3.38622292173885  9.85166975875082 3.74590663074523  9.38875 4.20375  L 4.81875 8.72  C 4.29340327710412 9.23729534614317  3.99985562476319 9.94523668896232  4.005 10.6825  C 4.0075 11.42375  4.29875 12.12  4.83 12.645  C 5.35875 13.16875  6.06125 13.4575  6.81 13.45875  L 6.81625 13.45875  C 7.56375 13.45875  8.26375 13.17125  8.79125 12.655  L 12.8 8.69125  C 12.9326536104072 8.56248671507164  13.0075135336569 8.38549512711524  13.0075135336569 8.200625  C 13.0075135336569 8.01575487288476  12.9326536104072 7.83876328492836  12.8 7.71  C 12.5262070407714 7.43879839627804  12.0850429592286 7.43879839627804  11.81125 7.71  L 7.80125 11.6725  C 7.54 11.9325  7.18875 12.0725  6.81375 12.0725  L 6.8125 12.0725  C 6.43972878769337 12.073071720614  6.08176299682699 11.9266515853286  5.81625 11.665  C 5.55125 11.4025  5.40375 11.0525  5.40375 10.68  C 5.40013136458957 10.3132485267722  5.54589007736137 9.96081027700516  5.8075 9.70375  L 10.3775 5.185  C 11.0324747438727 4.53868041350947  11.9173453143002 4.17897692959585  12.8375 4.185  L 12.8475 4.185  C 13.785 4.185  14.66625 4.5475  15.3275 5.1975  C 15.98625 5.85125  16.35125 6.72125  16.3525 7.6475  C 16.3585230878315 8.56299758550347  15.9942731268879 9.44206617936489  15.3425 10.085  L 10.495 14.88375  C 9.52275480310672 15.8383710600942  8.21253700166379 16.3699168965506  6.85 16.3625  L 6.83625 16.3625  C 5.46344483045088 16.3649113642813  4.14527410341025 15.8248836840144  3.16875 14.86  C 2.19614687337139 13.9048152424753  1.64917318835286 12.5982059454788  1.65125 11.235  C 1.64192006492612 9.87773562009491  2.18259021111633 8.5745356847407  3.15 7.6225  L 9.4075 1.435  C 9.54015361040719 1.30623671507164  9.61501353365686 1.12924512711524  9.61501353365686 0.944374999999999  C 9.61501353365686 0.759504872884758  9.54015361040719 0.582513284928364  9.4075 0.453749999999999  C 9.13362283750937 0.18205546579057  8.69206238546315 0.18149793996728  8.4175 0.452499999999999  L 2.15875 6.6425  C 0.928152310259215 7.85462811110556  0.239763076912106 9.51271298356834  0.25 11.24  C 0.2525 12.085  0.415 12.91  0.7375 13.68875  C 1.41260304730721 15.3213183454891  2.71776093223656 16.6125052723961  4.3575 17.27  C 5.14458092626263 17.5855554474432  5.98452050076082 17.7484528194671  6.8325 17.75  L 6.85 17.75  C 8.58135853843116 17.7534715039876  10.2445361217165 17.0754482451429  11.48 15.8625  L 16.3275 11.0675  C 17.2410200025228 10.1622770839161  17.753420201316 8.92855428541553  17.75 7.6425  Z " fill-rule="nonzero" fill="#d9dce2" stroke="none" transform="matrix(1 0 0 1 2268 2129 )" />
  </g>
</svg>