<?xml version="1.0" encoding="utf-8"?>
<svg version="1.1" xmlns:xlink="http://www.w3.org/1999/xlink" width="6px" height="7px" xmlns="http://www.w3.org/2000/svg">
  <g transform="matrix(1 0 0 1 -116 -292 )">
    <path d="M 3.26895 1.71354166666667  L 3.7194 0.510416666666667  L 4.4949 0.784729166666666  L 4.14675 1.71354166666667  L 5.475 1.71354166666667  L 5.475 2.515625  L 3.4125 2.515625  L 3.4125 3.71875  L 5.475 3.71875  L 5.475 4.52083333333333  L 3.4125 4.52083333333333  L 3.4125 6.125  L 2.5875 6.125  L 2.5875 4.52083333333333  L 0.525 4.52083333333333  L 0.525 3.71875  L 2.5875 3.71875  L 2.5875 2.515625  L 0.525 2.515625  L 0.525 1.71354166666667  L 1.8528375 1.71354166666667  L 1.5051 0.784729166666667  L 2.2806 0.510416666666667  L 2.7306375 1.71354166666667  L 3.26895 1.71354166666667  Z " fill-rule="nonzero" fill="#abacb6" stroke="none" transform="matrix(1 0 0 1 116 292 )" />
  </g>
</svg>