<?xml version="1.0" encoding="utf-8"?>
<svg version="1.1" xmlns:xlink="http://www.w3.org/1999/xlink" width="11px" height="11px" xmlns="http://www.w3.org/2000/svg">
  <g transform="matrix(1 0 0 1 -114 -290 )">
    <path d="M 0.0381944444444444 5.5  C 0.0381944444444444 2.48340277777778  2.48340277777778 0.0381944444444444  5.5 0.0381944444444444  C 8.51659722222222 0.0381944444444444  10.9618055555556 2.48340277777778  10.9618055555556 5.5  C 10.9618055555556 8.51659722222222  8.51659722222222 10.9618055555556  5.5 10.9618055555556  C 2.48340277777778 10.9618055555556  0.0381944444444444 8.51659722222222  0.0381944444444444 5.5  Z M 10.1215277777778 5.5  C 10.1215277777778 2.94765625  8.05234375 0.878472222222222  5.5 0.878472222222222  C 2.94765625 0.878472222222222  0.878472222222222 2.94765625  0.878472222222222 5.5  C 0.878472222222222 8.05234375  2.94765625 10.1215277777778  5.5 10.1215277777778  C 8.05234375 10.1215277777778  10.1215277777778 8.05234375  10.1215277777778 5.5  Z " fill-rule="nonzero" fill="#abacb6" stroke="none" transform="matrix(1 0 0 1 114 290 )" />
  </g>
</svg>