<?xml version="1.0" encoding="utf-8"?>
<svg version="1.1" xmlns:xlink="http://www.w3.org/1999/xlink" width="10px" height="4px" xmlns="http://www.w3.org/2000/svg">
  <g transform="matrix(1 0 0 1 -2495 -480 )">
    <path d="M 6.10171428571429 1.42613333333333  L 3.98742857142857 1.42613333333333  C 3.79807380005801 1.42613333333333  3.64457142857143 1.28286445327919  3.64457142857143 1.10613333333333  C 3.64457142857143 0.929402213387479  3.79807380005801 0.786133333333333  3.98742857142857 0.786133333333333  L 6.10171428571428 0.786133333333333  C 6.29106905708484 0.786133333333333  6.44457142857143 0.929402213387479  6.44457142857143 1.10613333333333  C 6.44457142857143 1.28286445327919  6.29106905708484 1.42613333333333  6.10171428571428 1.42613333333333  Z M 9.084 3.69066666666667  L 1.04914285714286 3.69066666666667  C 0.859788085772299 3.69066666666667  0.706285714285714 3.54739778661252  0.706285714285714 3.37066666666667  C 0.706285714285714 3.19393554672081  0.859788085772299 3.05066666666667  1.04914285714286 3.05066666666667  L 9.084 3.05066666666667  C 9.27335477137056 3.05066666666667  9.42685714285714 3.19393554672081  9.42685714285714 3.37066666666667  C 9.42685714285714 3.54739778661252  9.27335477137056 3.69066666666667  9.084 3.69066666666667  Z M 3.50514285714286 1.9584  C 3.50514285714286 2.13513111994585  3.35164048565627 2.2784  3.16228571428571 2.2784  C 2.97293094291516 2.2784  2.81942857142857 2.13513111994585  2.81942857142857 1.9584  L 2.81942857142857 0.4  C 2.81942857142857 0.223268880054146  2.97293094291516 0.0799999999999998  3.16228571428571 0.0799999999999998  C 3.35164048565627 0.0799999999999998  3.50514285714286 0.223268880054146  3.50514285714286 0.4  L 3.50514285714286 1.9584  Z M 7.31371428571429 1.9584  C 7.31371428571429 2.13513111994585  7.1602119142277 2.2784  6.97085714285714 2.2784  C 6.78150237148658 2.2784  6.628 2.13513111994585  6.628 1.9584  L 6.628 0.4  C 6.628 0.223268880054146  6.78150237148658 0.0799999999999992  6.97085714285714 0.0799999999999992  C 7.1602119142277 0.0799999999999992  7.31371428571428 0.223268880054146  7.31371428571428 0.4  L 7.31371428571429 1.9584  Z " fill-rule="nonzero" fill="#aeaeae" stroke="none" transform="matrix(1 0 0 1 2495 480 )" />
  </g>
</svg>