<?xml version="1.0" encoding="utf-8"?>
<svg version="1.1" xmlns:xlink="http://www.w3.org/1999/xlink" width="10px" height="8px" xmlns="http://www.w3.org/2000/svg">
  <g transform="matrix(1 0 0 1 -2495 -481 )">
    <path d="M 9.53142857142857 6.686836253208  C 9.53079845745985 7.41181057809989  8.95374265227746 7.99935829730993  8.24171428571429 7.99999986788567  L 1.89142857142857 7.99999986788567  C 1.1789537060945 8.00032163587038  0.600946111766477 7.41284644495244  0.6 6.68741807138021  L 0.6 1.44290906708047  C 0.600946111766477 0.717480693508242  1.1789537060945 0.130005502590304  1.89142857142857 0.13032727057501  L 2.35828571428571 0.13032727057501  C 2.54764048565627 0.13032727057501  2.70114285714286 0.286620591689369  2.70114285714286 0.47941817390093  C 2.70114285714286 0.672215756112491  2.54764048565627 0.82850907722685  2.35828571428571 0.82850907722685  L 1.89142857142857 0.828509077226851  C 1.89104726008708 0.828508342612048  1.89066594814846 0.828507975304401  1.89028463612438 0.828507975304401  C 1.55683485988744 0.828507975304401  1.28634402864641 1.10339717871501  1.28571428571429 1.44290906708047  L 1.28571428571429 6.686836253208  C 1.28602907003194 7.02657574302971  1.55661257804419 7.301819161598  1.89028544525485 7.301819161598  C 1.89066648756823 7.301819161598  1.89104752979633 7.30181879480978  1.89142857142857 7.30181806123383  L 8.24171428571429 7.30181806123383  C 8.57471783505994 7.30117772306545  8.84451395357423 7.02647622511466  8.84514285714286 6.68741807138021  L 8.84514285714286 1.44290906708047  C 8.84451395357423 1.10385091334602  8.57471783505994 0.829149415395237  8.24171428571429 0.828509077226851  L 7.80971428571428 0.82850907722685  C 7.62035951434373 0.82850907722685  7.46685714285714 0.672215756112491  7.46685714285714 0.47941817390093  C 7.46685714285714 0.286620591689369  7.62035951434373 0.13032727057501  7.80971428571428 0.13032727057501  L 8.24171428571429 0.13032727057501  C 8.95351983428859 0.130968285452113  9.53048355658158 0.718161966652895  9.53142857142857 1.44290906708047  L 9.53142857142857 6.686836253208  Z " fill-rule="nonzero" fill="#aeaeae" stroke="none" transform="matrix(1 0 0 1 2495 481 )" />
  </g>
</svg>