<?xml version="1.0" encoding="utf-8"?>
<svg version="1.1" xmlns:xlink="http://www.w3.org/1999/xlink" width="101px" height="4px" xmlns="http://www.w3.org/2000/svg">
  <g transform="matrix(1 0 0 1 -65 -56 )">
    <path d="M 66 58  A 1 1 0 0 1 67 57 L 164 57  A 1 1 0 0 1 165 58 A 1 1 0 0 1 164 59 L 67 59  A 1 1 0 0 1 66 58 Z " fill-rule="nonzero" fill="#108ee9" stroke="none" fill-opacity="0.6" />
    <path d="M 65.5 58  A 1.5 1.5 0 0 1 67 56.5 L 164 56.5  A 1.5 1.5 0 0 1 165.5 58 A 1.5 1.5 0 0 1 164 59.5 L 67 59.5  A 1.5 1.5 0 0 1 65.5 58 Z " stroke-width="1" stroke="#108ee9" fill="none" stroke-opacity="0.6" />
  </g>
</svg>