<?xml version="1.0" encoding="utf-8"?>
<svg version="1.1" xmlns:xlink="http://www.w3.org/1999/xlink" width="8px" height="8px" xmlns="http://www.w3.org/2000/svg">
  <g transform="matrix(1 0 0 1 -259 -54 )">
    <path d="M 263 55  C 264.68 55  266 56.32  266 58  C 266 59.68  264.68 61  263 61  C 261.32 61  260 59.68  260 58  C 260 56.32  261.32 55  263 55  Z " fill-rule="nonzero" fill="#ffffff" stroke="none" />
    <path d="M 263 55  C 264.68 55  266 56.32  266 58  C 266 59.68  264.68 61  263 61  C 261.32 61  260 59.68  260 58  C 260 56.32  261.32 55  263 55  Z " stroke-width="2" stroke="#e9e9e9" fill="none" />
  </g>
</svg>