<?xml version="1.0" encoding="utf-8"?>
<svg version="1.1" xmlns:xlink="http://www.w3.org/1999/xlink" width="14px" height="14px" xmlns="http://www.w3.org/2000/svg">
  <g transform="matrix(1 0 0 1 -157 -51 )">
    <path d="M 164 52  C 167.36 52  170 54.64  170 58  C 170 61.36  167.36 64  164 64  C 160.64 64  158 61.36  158 58  C 158 54.64  160.64 52  164 52  Z " fill-rule="nonzero" fill="#ffffff" stroke="none" />
    <path d="M 164 52  C 167.36 52  170 54.64  170 58  C 170 61.36  167.36 64  164 64  C 160.64 64  158 61.36  158 58  C 158 54.64  160.64 52  164 52  Z " stroke-width="2" stroke="#108ee9" fill="none" />
  </g>
</svg>