<?xml version="1.0" encoding="utf-8"?>
<svg version="1.1" xmlns:xlink="http://www.w3.org/1999/xlink" width="8px" height="8px" xmlns="http://www.w3.org/2000/svg">
  <g transform="matrix(1 0 0 1 -59 -54 )">
    <path d="M 63 55  C 64.68 55  66 56.32  66 58  C 66 59.68  64.68 61  63 61  C 61.32 61  60 59.68  60 58  C 60 56.32  61.32 55  63 55  Z " fill-rule="nonzero" fill="#ffffff" stroke="none" />
    <path d="M 63 55  C 64.68 55  66 56.32  66 58  C 66 59.68  64.68 61  63 61  C 61.32 61  60 59.68  60 58  C 60 56.32  61.32 55  63 55  Z " stroke-width="2" stroke="#108ee9" fill="none" />
  </g>
</svg>