<?xml version="1.0" encoding="utf-8"?>
<svg version="1.1" xmlns:xlink="http://www.w3.org/1999/xlink" width="12px" height="12px" viewBox="768 451  12 12" xmlns="http://www.w3.org/2000/svg">
  <path d="M 774 451  C 777.36 451  780 453.64  780 457  C 780 460.36  777.36 463  774 463  C 770.64 463  768 460.36  768 457  C 768 453.64  770.64 451  774 451  Z " fill-rule="nonzero" fill="#ffffff" stroke="none" />
  <path d="M 774 451.5  C 777.08 451.5  779.5 453.92  779.5 457  C 779.5 460.08  777.08 462.5  774 462.5  C 770.92 462.5  768.5 460.08  768.5 457  C 768.5 453.92  770.92 451.5  774 451.5  Z " stroke-width="1" stroke="#797979" fill="none" />
  <path d="M 774 460  C 772.32 460  771 458.68  771 457  C 771 455.32  772.32 454  774 454  C 775.68 454  777 455.32  777 457  C 777 458.68  775.68 460  774 460  " fill-rule="nonzero" fill="#797979" stroke="none" />
</svg>