<?xml version="1.0" encoding="utf-8"?>
<svg version="1.1" xmlns:xlink="http://www.w3.org/1999/xlink" width="10px" height="10px" xmlns="http://www.w3.org/2000/svg">
  <g transform="matrix(1 0 0 1 -100 -229 )">
    <path d="M 105 230  C 107.24 230  109 231.76  109 234  C 109 236.24  107.24 238  105 238  C 102.76 238  101 236.24  101 234  C 101 231.76  102.76 230  105 230  Z " fill-rule="nonzero" fill="#ffffff" stroke="none" />
    <path d="M 105 230  C 107.24 230  109 231.76  109 234  C 109 236.24  107.24 238  105 238  C 102.76 238  101 236.24  101 234  C 101 231.76  102.76 230  105 230  Z " stroke-width="2" stroke="#d9d9d9" fill="none" />
  </g>
</svg>