<?xml version="1.0" encoding="utf-8"?>
<svg version="1.1" xmlns:xlink="http://www.w3.org/1999/xlink" width="10px" height="10px" xmlns="http://www.w3.org/2000/svg">
  <g transform="matrix(1 0 0 1 -100 -104 )">
    <path d="M 105 105  C 107.24 105  109 106.76  109 109  C 109 111.24  107.24 113  105 113  C 102.76 113  101 111.24  101 109  C 101 106.76  102.76 105  105 105  Z " fill-rule="nonzero" fill="#ffffff" stroke="none" />
    <path d="M 105 105  C 107.24 105  109 106.76  109 109  C 109 111.24  107.24 113  105 113  C 102.76 113  101 111.24  101 109  C 101 106.76  102.76 105  105 105  Z " stroke-width="2" stroke="#108ee9" fill="none" />
  </g>
</svg>