<?xml version="1.0" encoding="utf-8"?>
<svg version="1.1" xmlns:xlink="http://www.w3.org/1999/xlink" width="10px" height="10px" xmlns="http://www.w3.org/2000/svg">
  <g transform="matrix(1 0 0 1 -100 -375 )">
    <path d="M 105 376  C 107.24 376  109 377.76  109 380  C 109 382.24  107.24 384  105 384  C 102.76 384  101 382.24  101 380  C 101 377.76  102.76 376  105 376  Z " fill-rule="nonzero" fill="#ffffff" stroke="none" />
    <path d="M 105 376  C 107.24 376  109 377.76  109 380  C 109 382.24  107.24 384  105 384  C 102.76 384  101 382.24  101 380  C 101 377.76  102.76 376  105 376  Z " stroke-width="2" stroke="#ff6600" fill="none" />
  </g>
</svg>