<?xml version="1.0" encoding="utf-8"?>
<svg version="1.1" xmlns:xlink="http://www.w3.org/1999/xlink" width="65px" height="22px" xmlns="http://www.w3.org/2000/svg">
  <g transform="matrix(1 0 0 1 -266 -101 )">
    <path d="M 267 105  A 3 3 0 0 1 270 102 L 327 102  A 3 3 0 0 1 330 105 L 330 119  A 3 3 0 0 1 327 122 L 270 122  A 3 3 0 0 1 267 119 L 267 105  Z " fill-rule="nonzero" fill="#ffffff" stroke="none" fill-opacity="0" />
    <path d="M 266.5 105  A 3.5 3.5 0 0 1 270 101.5 L 327 101.5  A 3.5 3.5 0 0 1 330.5 105 L 330.5 119  A 3.5 3.5 0 0 1 327 122.5 L 270 122.5  A 3.5 3.5 0 0 1 266.5 119 L 266.5 105  Z " stroke-width="1" stroke-dasharray="3,1" stroke="#ebebeb" fill="none" stroke-dashoffset="0.5" />
  </g>
</svg>