<?xml version="1.0" encoding="utf-8"?>
<svg version="1.1" xmlns:xlink="http://www.w3.org/1999/xlink" width="58px" height="20px" xmlns="http://www.w3.org/2000/svg">
  <defs>
    <mask fill="white" id="clip43">
      <path d="M 10 20  C 4.40000000000009 20  0 15.6  0 10  C 0 4.39999999999998  4.40000000000009 0  10 0  L 34.633699633697 0  L 48 0  C 53.5999999999999 0  58 4.39999999999998  58 10  C 58 15.6  53.5999999999999 20  48 20  L 10 20  Z " fill-rule="evenodd" />
    </mask>
  </defs>
  <g transform="matrix(1 0 0 1 -1365 -474 )">
    <path d="M 10 20  C 4.40000000000009 20  0 15.6  0 10  C 0 4.39999999999998  4.40000000000009 0  10 0  L 34.633699633697 0  L 48 0  C 53.5999999999999 0  58 4.39999999999998  58 10  C 58 15.6  53.5999999999999 20  48 20  L 10 20  Z " fill-rule="nonzero" fill="#ffffff" stroke="none" transform="matrix(1 0 0 1 1365 474 )" />
    <path d="M 10 20  C 4.40000000000009 20  0 15.6  0 10  C 0 4.39999999999998  4.40000000000009 0  10 0  L 34.633699633697 0  L 48 0  C 53.5999999999999 0  58 4.39999999999998  58 10  C 58 15.6  53.5999999999999 20  48 20  L 10 20  Z " stroke-width="2" stroke="#02a7f0" fill="none" transform="matrix(1 0 0 1 1365 474 )" mask="url(#clip43)" />
  </g>
</svg>