<?xml version="1.0" encoding="utf-8"?>
<svg version="1.1" xmlns:xlink="http://www.w3.org/1999/xlink" width="7px" height="8px" xmlns="http://www.w3.org/2000/svg">
  <g transform="matrix(1 0 0 1 -116 -193 )">
    <path d="M 0.5458984375 1.0185546875  C 0.5458984375 1.16142578125  0.66083984375 1.2763671875  0.8037109375 1.2763671875  L 6.1748046875 1.2763671875  C 6.31767578125 1.2763671875  6.4326171875 1.16142578125  6.4326171875 1.0185546875  C 6.4326171875 0.87568359375  6.31767578125 0.7607421875  6.1748046875 0.7607421875  L 0.8037109375 0.7607421875  C 0.66083984375 0.7607421875  0.5458984375 0.87568359375  0.5458984375 1.0185546875  Z M 0.5458984375 2.8876953125  C 0.5458984375 3.03056640625  0.66083984375 3.1455078125  0.8037109375 3.1455078125  L 6.1748046875 3.1455078125  C 6.31767578125 3.1455078125  6.4326171875 3.03056640625  6.4326171875 2.8876953125  C 6.4326171875 2.74482421875  6.31767578125 2.6298828125  6.1748046875 2.6298828125  L 0.8037109375 2.6298828125  C 0.66083984375 2.6298828125  0.5458984375 2.74482421875  0.5458984375 2.8876953125  Z M 3.1669921875 5.0146484375  C 3.30986328125 5.0146484375  3.4248046875 4.89970703125  3.4248046875 4.7568359375  C 3.4248046875 4.61396484375  3.30986328125 4.4990234375  3.1669921875 4.4990234375  L 0.8037109375 4.4990234375  C 0.66083984375 4.4990234375  0.5458984375 4.61396484375  0.5458984375 4.7568359375  C 0.5458984375 4.89970703125  0.66083984375 5.0146484375  0.8037109375 5.0146484375  L 3.1669921875 5.0146484375  Z M 6.5228515625 6.6388671875  L 6.0845703125 5.824609375  L 6.50458984375 5.00390625  C 6.5421875 4.930859375  6.53466796875 4.84384765625  6.48525390625 4.7783203125  C 6.43583984375 4.71279296875  6.35419921875 4.68056640625  6.27470703125 4.69560546875  L 5.3669921875 4.862109375  L 4.716015625 4.208984375  C 4.6580078125 4.1509765625  4.57314453125 4.13056640625  4.4947265625 4.157421875  C 4.4173828125 4.183203125  4.3615234375 4.251953125  4.35078125 4.33251953125  L 4.2283203125 5.2466796875  L 3.40546875 5.66455078125  C 3.332421875 5.70107421875  3.2873046875 5.77626953125  3.28837890625 5.858984375  C 3.289453125 5.940625  3.33671875 6.01474609375  3.409765625 6.0501953125  L 4.2412109375 6.44873046875  L 4.38408203125 7.35966796875  C 4.39697265625 7.440234375  4.45390625 7.5068359375  4.53232421875 7.53154296875  C 4.55380859375 7.53798828125  4.57529296875 7.5412109375  4.59677734375 7.5412109375  C 4.65478515625 7.5412109375  4.71064453125 7.517578125  4.7525390625 7.474609375  L 5.3884765625 6.80751953125  L 6.2994140625 6.95361328125  C 6.37998046875 6.96650390625  6.46162109375 6.93212890625  6.50888671875 6.86552734375  C 6.55615234375 6.79892578125  6.5615234375 6.71083984375  6.5228515625 6.6388671875  Z M 5.9384765625 6.45517578125  L 5.3455078125 6.36279296875  C 5.27568359375 6.35205078125  5.20478515625 6.37568359375  5.1564453125 6.426171875  L 4.74287109375 6.86015625  L 4.65048828125 6.2671875  C 4.63974609375 6.19736328125  4.59462890625 6.13720703125  4.53125 6.10712890625  L 3.98984375 5.84716796875  L 4.5248046875 5.575390625  C 4.58818359375 5.5431640625  4.63115234375 5.48193359375  4.6408203125 5.412109375  L 4.7203125 4.8169921875  L 5.1435546875 5.2423828125  C 5.19296875 5.29287109375  5.26494140625 5.31435546875  5.334765625 5.3025390625  L 5.92451171875 5.19404296875  L 5.65166015625 5.7279296875  C 5.61943359375 5.79130859375  5.6205078125 5.8654296875  5.65380859375 5.927734375  L 5.9384765625 6.45517578125  Z " fill-rule="nonzero" fill="#aaabb5" stroke="none" transform="matrix(1 0 0 1 116 193 )" />
  </g>
</svg>