<?xml version="1.0" encoding="utf-8"?>
<svg version="1.1" xmlns:xlink="http://www.w3.org/1999/xlink" width="9px" height="10px" xmlns="http://www.w3.org/2000/svg">
  <g transform="matrix(1 0 0 1 -115 -192 )">
    <path d="M 8.55517578125 0.5984375  C 8.5541015625 0.29873046875  8.311328125 0.0548828125000003  8.010546875 0.0548828125  L 0.989453125 0.0548828125  C 0.68974609375 0.0548828125  0.4458984375 0.29873046875  0.4458984375 0.5984375  L 0.4458984375 8.75390625  C 0.4458984375 9.05361328125  0.68974609375 9.2974609375  0.989453125 9.2974609375  L 8.01162109375 9.2974609375  C 8.311328125 9.2974609375  8.55517578125 9.05361328125  8.55517578125 8.75390625  L 8.55517578125 0.5984375  Z M 8.03955078125 8.75390625  L 8.0384765625 8.75390625  C 8.0384765625 8.7689453125  8.0255859375 8.7818359375  8.010546875 8.7818359375  L 0.989453125 8.7818359375  C 0.9744140625 8.7818359375  0.9615234375 8.7689453125  0.9615234375 8.75390625  L 0.9615234375 0.5984375  C 0.9615234375 0.5833984375  0.9744140625 0.5705078125  0.989453125 0.5705078125  L 8.01162109375 0.5705078125  C 8.02666015625 0.5705078125  8.03955078125 0.5833984375  8.03955078125 0.5984375  L 8.03955078125 8.75390625  Z " fill-rule="nonzero" fill="#aaabb5" stroke="none" transform="matrix(1 0 0 1 115 192 )" />
  </g>
</svg>