<?xml version="1.0" encoding="utf-8"?>
<svg version="1.1" xmlns:xlink="http://www.w3.org/1999/xlink" width="10px" height="10px" xmlns="http://www.w3.org/2000/svg">
  <g transform="matrix(1 0 0 1 -116 -262 )">
    <path d="M 8.78028057861328 9.19350819824219  C 8.78028057861328 9.28524047445427  8.70591687582145 9.35960417724609  8.61418459960937 9.35960417724609  L 0.734591401367187 9.35960417724609  C 0.642859125155114 9.35960417724609  0.568495422363281 9.28524047445426  0.568495422363281 9.19350819824219  L 0.568495422363281 0.300729547119141  C 0.568495422363281 0.208997270907067  0.642859125155114 0.134633568115234  0.734591401367187 0.134633568115234  L 2.86643328125 0.134633568115234  L 2.86643328125 0.466825526123046  L 0.900687380371094 0.466825526123046  L 0.900687380371094 9.02741221923828  L 8.44725814086914 9.02741221923828  L 8.44725814086914 0.466825526123047  L 6.50144375366211 0.466825526123047  L 6.50144375366211 0.134633568115235  L 8.61418459960938 0.134633568115235  C 8.70591687582145 0.134633568115235  8.78028057861328 0.208997270907068  8.78028057861328 0.300729547119141  L 8.78028057861328 9.19350819824219  Z " fill-rule="nonzero" fill="#babbc3" stroke="none" transform="matrix(1 0 0 1 116 262 )" />
  </g>
</svg>