<?xml version="1.0" encoding="utf-8"?>
<svg version="1.1" xmlns:xlink="http://www.w3.org/1999/xlink" width="6px" height="9px" xmlns="http://www.w3.org/2000/svg">
  <g transform="matrix(1 0 0 1 -117 -261 )">
    <path d="M 0.736178258203125 4.29774984919085  L 0.736178258203125 3.95606670870536  L 5.98055911054687 3.95606670870536  L 5.98055911054687 4.29774984919085  L 0.736178258203125 4.29774984919085  Z M 0.736178258203125 5.92928692131696  L 0.736178258203125 5.58760376450893  L 5.98055911054687 5.58760376450893  L 5.98055911054687 5.92928692131696  L 0.736178258203125 5.92928692131696  Z M 3.358368684375 8.33473632631138  L 3.358368684375 7.99305316950335  L 5.98055911054687 7.99305316950335  L 5.98055911054687 8.33473632631138  L 3.358368684375 8.33473632631138  Z M 4.91143251914063 1.00819528166853  L 5.44878621914063 2.66535858565848  L 1.15952368476563 2.66535858565848  L 1.69767466054688 1.00819528166853  L 4.91143251914063 1.00819528166853  Z M 1.92409668632812 1.34987843847656  L 1.6083814640625 2.32367542885045  L 5.000725715625 2.32367542885045  L 4.6818214359375 1.34987843847656  L 1.92409668632812 1.34987843847656  Z M 2.41600653515625 8.12887223102679  L 2.60416006992187 8.9873511453683  L 1.861113103125 8.53120413657924  L 1.11806613632813 8.9873511453683  L 1.30940869804688 8.12887223102678  L 0.68196452578125 7.52580146023996  L 1.51589922539063 7.41304602371652  L 1.86589666640625 6.62375793540737  L 2.18480094609375 7.38571136007255  L 3.029897278125 7.53861457617188  L 2.41600653515625 8.12887223102679  Z M 1.73355138515625 7.72910293233817  L 1.41863340820313 7.77095912737165  L 1.66817600507812 8.01013732407924  L 1.60359790078125 8.29800539397321  L 1.86509940585938 8.13741430831473  L 2.12580365039063 8.29800539397321  L 2.06202279140625 8.01013732407924  L 2.32432155703125 7.75814601143973  L 1.9623652078125 7.692372  L 1.85951858203125 7.44379750195312  L 1.73355138515625 7.72910293233817  Z " fill-rule="nonzero" fill="#babbc3" stroke="none" transform="matrix(1 0 0 1 117 261 )" />
  </g>
</svg>