<?xml version="1.0" encoding="utf-8"?>
<svg version="1.1" xmlns:xlink="http://www.w3.org/1999/xlink" width="23px" height="23px" xmlns="http://www.w3.org/2000/svg">
  <g transform="matrix(1 0 0 1 -2842 -1522 )">
    <path d="M 2853.5 1522  C 2859.94 1522  2865 1527.06  2865 1533.5  C 2865 1539.94  2859.94 1545  2853.5 1545  C 2847.06 1545  2842 1539.94  2842 1533.5  C 2842 1527.06  2847.06 1522  2853.5 1522  Z " fill-rule="nonzero" fill="#ffffff" stroke="none" />
    <path d="M 2853.5 1522.5  C 2859.66 1522.5  2864.5 1527.34  2864.5 1533.5  C 2864.5 1539.66  2859.66 1544.5  2853.5 1544.5  C 2847.34 1544.5  2842.5 1539.66  2842.5 1533.5  C 2842.5 1527.34  2847.34 1522.5  2853.5 1522.5  Z " stroke-width="1" stroke="#797979" fill="none" />
  </g>
</svg>