<?xml version="1.0" encoding="utf-8"?>
<svg version="1.1" xmlns:xlink="http://www.w3.org/1999/xlink" width="13px" height="12px" xmlns="http://www.w3.org/2000/svg">
  <g transform="matrix(1 0 0 1 -3075 -2726 )">
    <path d="M 12.4475 9.43225  C 12.446672975416 10.3667872311142  11.6892872311142 11.1241729754161  10.75475 11.125  L 2.42 11.125  C 1.48487673924904 11.1254147790496  0.726241771693501 10.3681225282508  0.725 9.433  L 0.725 2.6725  C 0.726241771693501 1.73737747174916  1.48487673924904 0.980085220950365  2.42 0.9805  L 3.03275 0.980499999999999  C 3.28127813742386 0.980499999999999  3.48275 1.18197186257614  3.48275 1.4305  C 3.48275 1.67902813742386  3.28127813742386 1.8805  3.03275 1.8805  L 2.42 1.8805  C 2.41949952886429 1.88049905303559  2.41899905694485 1.88049857955307  2.41849858491325 1.88049857955307  C 1.98084575360227 1.88049857955307  1.62582653759842 2.23484794917639  1.625 2.6725  L 1.625 9.43225  C 1.62541315441693 9.87019544333065  1.98055400868301 10.2250014184382  2.41849964689699 10.2250014184382  C 2.4189997649333 10.2250014184382  2.41949988285768 10.2250009456253  2.42 10.225  L 10.75475 10.225  C 11.1918171585162 10.2241745640662  11.5459245640662 9.87006715851617  11.54675 9.433  L 11.54675 2.6725  C 11.5459245640662 2.23543284148383  11.1918171585162 1.88132543593382  10.75475 1.8805  L 10.18775 1.8805  C 9.93922186257614 1.8805  9.73775 1.67902813742386  9.73775 1.4305  C 9.73775 1.18197186257614  9.93922186257614 0.980499999999999  10.18775 0.980499999999999  L 10.75475 0.9805  C 11.6889947825038 0.981326308253661  12.4462596680133 1.7382556754267  12.4475 2.6725  L 12.4475 9.43225  Z " fill-rule="nonzero" fill="#aaaaaa" stroke="none" transform="matrix(1 0 0 1 3075 2726 )" />
  </g>
</svg>