<?xml version="1.0" encoding="utf-8"?>
<svg version="1.1" xmlns:xlink="http://www.w3.org/1999/xlink" width="13px" height="7px" xmlns="http://www.w3.org/2000/svg">
  <g transform="matrix(1 0 0 1 -3075 -2725 )">
    <path d="M 7.946 2.8805  L 5.171 2.8805  C 4.92247186257614 2.8805  4.721 2.67902813742386  4.721 2.4305  C 4.721 2.18197186257614  4.92247186257614 1.9805  5.171 1.9805  L 7.946 1.9805  C 8.19452813742386 1.9805  8.396 2.18197186257614  8.396 2.4305  C 8.396 2.67902813742386  8.19452813742386 2.8805  7.946 2.8805  Z M 11.86025 6.065  C 11.86025 6.065  11.86025 6.065  11.86025 6  L 1.3145 6  C 1.3145 6.065  1.3145 6.065  1.3145 6.065  C 1.06597186257614 6.065  0.8645 5.86352813742386  0.8645 5.615  C 0.8645 5.36647186257614  1.06597186257614 5.165  1.3145 5.165  L 11.86025 5.165  C 12.1087781374239 5.165  12.31025 5.36647186257614  12.31025 5.615  C 12.31025 5.86352813742386  12.1087781374239 6.065  11.86025 6.065  Z M 4.538 3.629  C 4.538 3.87752813742386  4.33652813742386 4.079  4.088 4.079  C 3.83947186257614 4.079  3.638 3.87752813742386  3.638 3.629  L 3.638 1.4375  C 3.638 1.18897186257614  3.83947186257614 0.9875  4.088 0.9875  C 4.33652813742386 0.9875  4.538 1.18897186257614  4.538 1.4375  L 4.538 3.629  Z M 9.53675 3.629  C 9.53675 3.87752813742386  9.33527813742386 4.079  9.08675 4.079  C 8.83822186257614 4.079  8.63675 3.87752813742386  8.63675 3.629  L 8.63675 1.4375  C 8.63675 1.18897186257614  8.83822186257614 0.987499999999999  9.08675 0.987499999999999  C 9.33527813742386 0.987499999999999  9.53675 1.18897186257614  9.53675 1.4375  L 9.53675 3.629  Z " fill-rule="nonzero" fill="#aaaaaa" stroke="none" transform="matrix(1 0 0 1 3075 2725 )" />
  </g>
</svg>