<?xml version="1.0" encoding="utf-8"?>
<svg version="1.1" xmlns:xlink="http://www.w3.org/1999/xlink" width="17px" height="17px" xmlns="http://www.w3.org/2000/svg">
  <g transform="matrix(1 0 0 1 -1912 -480 )">
    <path d="M 16 1.486328125  C 16.21875 0.769005158911176  15.6372448410888 0.1875  14.919921875 0.1875  L 2.080078125 0.1875  C 1.36275515891118 0.1875  0.78125 0.769005158911177  1 1.486328125  L 1 15.513671875  C 0.78125 16.2309948410888  1.36275515891118 16.8125  2.080078125 16.8125  L 14.919921875 16.8125  C 15.6372448410888 16.8125  16.21875 16.2309948410888  16 15.513671875  L 16 1.486328125  Z M 14.734375 2.4140625  L 14.734375 14.5859375  C 14.734375 14.995836337765  14.402086337765 15.328125  13.9921875 15  L 3.0078125 15  C 2.59791366223496 15.328125  2.265625 14.995836337765  2.265625 14.5859375  L 2.265625 2.4140625  C 2.265625 2.00416366223496  2.59791366223496 1.671875  3.0078125 2  L 13.9921875 2  C 14.402086337765 1.671875  14.734375 2.00416366223496  14.734375 2.4140625  Z " fill-rule="nonzero" fill="#aaaaaa" stroke="none" transform="matrix(1 0 0 1 1912 480 )" />
  </g>
</svg>