<?xml version="1.0" encoding="utf-8"?>
<svg version="1.1" xmlns:xlink="http://www.w3.org/1999/xlink" width="26px" height="26px" xmlns="http://www.w3.org/2000/svg">
  <g transform="matrix(1 0 0 1 -4909 -3016 )">
    <path d="M 1 4.73597909179687  L 1 21.2640209082031  C 0.922486616536384 23.8782186833826  3.04086400022935 25.9965960784327  5.65506177539062 26  L 20.3449382246094 26  C 22.9598410662355 25.9982959106624  25.0792132156971 23.8789237498383  25 21.2640209082031  L 25 4.73597909179688  C 25.0792132156971 2.12107625016166  22.9598410662355 0.00170408933760383  20.3449382246094 0  L 5.65506177539062 0  C 3.04086400022935 0.00340392156729946  0.922486616536385 2.12178131661735  1 4.73597909179687  Z M 5.65506177539062 23.8714353515625  C 4.21573226509524 23.8697330085965  3.04934967499729 22.7033504184985  3 21.2640209082031  L 3 4.73597909179688  C 3.04934967499729 3.29664958150149  4.21573226509524 2.13026699140354  5.65506177539062 2.1285646484375  L 20.3449382246094 2.1285646484375  C 21.7847703426181 2.13026255767363  22.9520391619037 3.2961499937814  23 4.73597909179688  L 23 21.2640209082031  C 22.9520391619037 22.7038500062186  21.7847703426181 23.8697374423264  20.3449382246094 23.8714353515625  L 5.65506177539062 23.8714353515625  Z " fill-rule="nonzero" fill="#d7d7d7" stroke="none" transform="matrix(1 0 0 1 4909 3016 )" />
  </g>
</svg>