<?xml version="1.0" encoding="utf-8"?>
<svg version="1.1" xmlns:xlink="http://www.w3.org/1999/xlink" width="18px" height="16px" xmlns="http://www.w3.org/2000/svg">
  <g transform="matrix(1 0 0 1 -4913 -3021 )">
    <path d="M 1.65506177539063 2.78826046679688  C 1.65506177539063 2.78826046679688  1.65506177539063 2.78826046679688  1.65506177539062 3  L 16.6291587480469 3  C 16.6291587480469 2.78826046679688  16.6291587480469 2.78826046679688  16.6291587480469 2.78826046679688  C 17.2160925438106 2.78826046679688  17.6918963955078 2.31245661509967  17.6918963955078 1.72552281933594  C 17.6918963955078 1.13858902357221  17.2160925438106 0.662785171875001  16.6291587480469 0.662785171875001  L 1.65506177539063 0.662785171875001  C 1.06812797962689 0.662785171875001  0.592324127929688 1.13858902357221  0.592324127929688 1.72552281933594  C 0.592324127929688 2.31245661509967  1.06812797962689 2.78826046679688  1.65506177539063 2.78826046679688  Z M 0.646595952580581 8.29812262695312  C 0.646595952580581 8.86447379338688  1.0895314009833 9.33192480445969  1.65506177539062 9.36240495117187  L 16.6291587480469 9.36240495117187  C 17.1946891224542 9.33192480445969  17.6376245708569 8.86447379338688  17.6376245708569 8.29812262695312  C 17.6376245708569 7.73177146051936  17.1946891224542 7.26432044944656  16.6291587480469 7.23384030273438  L 1.65506177539062 7.23384030273437  C 1.0895314009833 7.26432044944656  0.646595952580581 7.73177146051936  0.646595952580581 8.29812262695312  Z M 0.646595952580563 14.8722671113281  C 0.646595952580563 15.4386182777619  1.0895314009833 15.9060692888347  1.65506177539062 16  L 16.8176093125 16  C 17.3831396869073 15.9060692888347  17.8260751353101 15.4386182777619  17.8260751353101 14.8722671113281  C 17.8260751353101 14.3059159448944  17.3831396869073 13.8384649338215  16.8176093125 13.8079847871094  L 1.65506177539062 13.8079847871094  C 1.0895314009833 13.8384649338215  0.646595952580563 14.3059159448944  0.646595952580563 14.8722671113281  Z " fill-rule="nonzero" fill="#d7d7d7" stroke="none" transform="matrix(1 0 0 1 4913 3021 )" />
  </g>
</svg>