<?xml version="1.0" encoding="utf-8"?>
<svg version="1.1" xmlns:xlink="http://www.w3.org/1999/xlink" width="50px" height="50px" xmlns="http://www.w3.org/2000/svg">
  <g transform="matrix(1 0 0 1 -356 -321 )">
    <path d="M 356 321  L 406 321  L 406 371  L 356 371  L 356 321  " fill-rule="nonzero" fill="#cccccc" stroke="none" />
    <path d="M 360 325  L 402 325  L 402 367  L 360 367  L 360 325  " fill-rule="nonzero" fill="#ffffff" stroke="none" />
    <path d="M 385.75 336  C 383.65 336  382 334.35  382 332.25  C 382 330.15  383.65 328.5  385.75 328.5  C 387.85 328.5  389.5 330.15  389.5 332.25  C 389.5 334.35  387.85 336  385.75 336  " fill-rule="nonzero" fill="#cccccc" stroke="none" />
    <path d="M 362 366  L 362 344.55  L 371.75 334.8  L 385.4 342.6  L 393.2 340.65  L 401 342.6  L 401 366  L 362 366  " fill-rule="nonzero" fill="#169bd5" stroke="none" />
  </g>
</svg>