<?xml version="1.0" encoding="utf-8"?>
<svg version="1.1" xmlns:xlink="http://www.w3.org/1999/xlink" width="23px" height="23px" xmlns="http://www.w3.org/2000/svg">
  <g transform="matrix(1 0 0 1 -1129 -646 )">
    <path d="M 1140.5 646  C 1146.94 646  1152 651.06  1152 657.5  C 1152 663.94  1146.94 669  1140.5 669  C 1134.06 669  1129 663.94  1129 657.5  C 1129 651.06  1134.06 646  1140.5 646  Z " fill-rule="nonzero" fill="#ffffff" stroke="none" />
    <path d="M 1140.5 646.5  C 1146.66 646.5  1151.5 651.34  1151.5 657.5  C 1151.5 663.66  1146.66 668.5  1140.5 668.5  C 1134.34 668.5  1129.5 663.66  1129.5 657.5  C 1129.5 651.34  1134.34 646.5  1140.5 646.5  Z " stroke-width="1" stroke="#cccccc" fill="none" />
  </g>
</svg>