<?xml version="1.0" encoding="utf-8"?>
<svg version="1.1" xmlns:xlink="http://www.w3.org/1999/xlink" width="30px" height="30px" xmlns="http://www.w3.org/2000/svg">
  <g transform="matrix(1 0 0 1 -978 -385 )">
    <path d="M 978 385  L 1008 385  L 1008 415  L 978 415  L 978 385  " fill-rule="nonzero" fill="#cccccc" stroke="none" />
    <path d="M 980 387  L 1006 387  L 1006 413  L 980 413  L 980 387  " fill-rule="nonzero" fill="#ffffff" stroke="none" />
    <path d="M 995.85 394  C 994.59 394  993.6 393.01  993.6 391.75  C 993.6 390.49  994.59 389.5  995.85 389.5  C 997.11 389.5  998.1 390.49  998.1 391.75  C 998.1 393.01  997.11 394  995.85 394  " fill-rule="nonzero" fill="#cccccc" stroke="none" />
    <path d="M 981 412  L 981 398.8  L 987 392.8  L 995.4 397.6  L 1000.2 396.4  L 1005 397.6  L 1005 412  L 981 412  " fill-rule="nonzero" fill="#169bd5" stroke="none" />
  </g>
</svg>