<?xml version="1.0" encoding="utf-8"?>
<svg version="1.1" xmlns:xlink="http://www.w3.org/1999/xlink" width="523px" height="55px" xmlns="http://www.w3.org/2000/svg">
  <g transform="matrix(1 0 0 1 -235 -100 )">
    <path d="M 0.5 54  L 0.5 1.21543408360127  C 0 0.534790996784563  1.54295585412667 0  3.50671785028791 0.5  L 518.493282149712 0.5  C 520.457044145873 0  522 0.534790996784563  522.5 1.21543408360127  L 522.5 54  L 0.5 54  Z " fill-rule="nonzero" fill="#ffffff" stroke="none" transform="matrix(1 0 0 1 235 100 )" />
    <path d="M 0.5 54  L 0.5 1.21543408360127  C 0 0.534790996784563  1.54295585412667 0  3.50671785028791 0.5  L 518.493282149712 0.5  C 520.457044145873 0  522 0.534790996784563  522.5 1.21543408360127  L 522.5 54  " stroke-width="1" stroke="#d8d8d8" fill="none" transform="matrix(1 0 0 1 235 100 )" />
  </g>
</svg>