<?xml version="1.0" encoding="utf-8"?>
<svg version="1.1" xmlns:xlink="http://www.w3.org/1999/xlink" width="523px" height="55px" xmlns="http://www.w3.org/2000/svg">
  <g transform="matrix(1 0 0 1 -235 -336 )">
    <path d="M 0.5 0  L 0.5 52.7845659163987  C 0 53.4652090032154  1.54295585412667 54  3.50671785028791 54.5  L 518.493282149712 54.5  C 520.457044145873 54  522 53.4652090032154  522.5 52.7845659163987  L 522.5 0  L 0.5 0  Z " fill-rule="nonzero" fill="#ffffff" stroke="none" transform="matrix(1 0 0 1 235 336 )" />
    <path d="M 0.5 0  L 0.5 52.7845659163987  C 0 53.4652090032154  1.54295585412667 54  3.50671785028791 54.5  L 518.493282149712 54.5  C 520.457044145873 54  522 53.4652090032154  522.5 52.7845659163987  L 522.5 0  " stroke-width="1" stroke="#ebebeb" fill="none" transform="matrix(1 0 0 1 235 336 )" />
  </g>
</svg>