<?xml version="1.0" encoding="utf-8"?>
<svg version="1.1" xmlns:xlink="http://www.w3.org/1999/xlink" width="12px" height="12px" viewBox="529 522  12 12" xmlns="http://www.w3.org/2000/svg">
  <path d="M 535 522  C 538.36 522  541 524.64  541 528  C 541 531.36  538.36 534  535 534  C 531.64 534  529 531.36  529 528  C 529 524.64  531.64 522  535 522  Z " fill-rule="nonzero" fill="#f0f0f0" stroke="none" />
  <path d="M 535 522.5  C 538.08 522.5  540.5 524.92  540.5 528  C 540.5 531.08  538.08 533.5  535 533.5  C 531.92 533.5  529.5 531.08  529.5 528  C 529.5 524.92  531.92 522.5  535 522.5  Z " stroke-width="1" stroke="#797979" fill="none" />
  <path d="M 535 531  C 533.32 531  532 529.68  532 528  C 532 526.32  533.32 525  535 525  C 536.68 525  538 526.32  538 528  C 538 529.68  536.68 531  535 531  " fill-rule="nonzero" fill="#797979" stroke="none" />
</svg>