<?xml version="1.0" encoding="utf-8"?>
<svg version="1.1" xmlns:xlink="http://www.w3.org/1999/xlink" width="8px" height="8px" xmlns="http://www.w3.org/2000/svg">
  <g transform="matrix(1 0 0 1 -911 -1405 )">
    <path d="M 915 1406  C 916.68 1406  918 1407.32  918 1409  C 918 1410.68  916.68 1412  915 1412  C 913.32 1412  912 1410.68  912 1409  C 912 1407.32  913.32 1406  915 1406  Z " fill-rule="nonzero" fill="#ffffff" stroke="none" />
    <path d="M 915 1406  C 916.68 1406  918 1407.32  918 1409  C 918 1410.68  916.68 1412  915 1412  C 913.32 1412  912 1410.68  912 1409  C 912 1407.32  913.32 1406  915 1406  Z " stroke-width="2" stroke="#2db7f5" fill="none" />
  </g>
</svg>