<?xml version="1.0" encoding="utf-8"?>
<svg version="1.1" xmlns:xlink="http://www.w3.org/1999/xlink" width="144px" height="105px" xmlns="http://www.w3.org/2000/svg">
  <defs>
    <mask fill="white" id="clip88">
      <path d="M 0 91.8035714285714  L 0 5.19642857142857  C 0 2.28642857142857  2.64 0  6 0  L 130 0  C 133.36 0  136 2.28642857142857  136 5.19642857142857  L 136 91.8035714285714  C 136 94.7135714285714  133.36 97  130 97  L 6 97  C 2.64 97  0 94.7135714285714  0 91.8035714285714  Z " fill-rule="evenodd" />
    </mask>
    <filter x="628px" y="981px" width="144px" height="105px" filterUnits="userSpaceOnUse" id="filter89">
      <feOffset dx="0" dy="0" in="SourceAlpha" result="shadowOffsetInner" />
      <feGaussianBlur stdDeviation="2" in="shadowOffsetInner" result="shadowGaussian" />
      <feComposite in2="shadowGaussian" operator="atop" in="SourceAlpha" result="shadowComposite" />
      <feColorMatrix type="matrix" values="0 0 0 0 0  0 0 0 0 0  0 0 0 0 0  0 0 0 0.149019607843137 0  " in="shadowComposite" />
    </filter>
    <g id="widget90">
      <path d="M 0 91.8035714285714  L 0 5.19642857142857  C 0 2.28642857142857  2.64 0  6 0  L 130 0  C 133.36 0  136 2.28642857142857  136 5.19642857142857  L 136 91.8035714285714  C 136 94.7135714285714  133.36 97  130 97  L 6 97  C 2.64 97  0 94.7135714285714  0 91.8035714285714  Z " fill-rule="nonzero" fill="#ffffff" stroke="none" transform="matrix(1 0 0 1 632 985 )" />
      <path d="M 0 91.8035714285714  L 0 5.19642857142857  C 0 2.28642857142857  2.64 0  6 0  L 130 0  C 133.36 0  136 2.28642857142857  136 5.19642857142857  L 136 91.8035714285714  C 136 94.7135714285714  133.36 97  130 97  L 6 97  C 2.64 97  0 94.7135714285714  0 91.8035714285714  Z " stroke-width="2" stroke="#ebebeb" fill="none" transform="matrix(1 0 0 1 632 985 )" mask="url(#clip88)" />
    </g>
  </defs>
  <g transform="matrix(1 0 0 1 -628 -981 )">
    <use xlink:href="#widget90" filter="url(#filter89)" />
    <use xlink:href="#widget90" />
  </g>
</svg>