<?xml version="1.0" encoding="utf-8"?>
<svg version="1.1" xmlns:xlink="http://www.w3.org/1999/xlink" width="67px" height="28px" xmlns="http://www.w3.org/2000/svg">
  <defs>
    <mask fill="white" id="clip105">
      <path d="M 67 24  L 67 4  C 67 1.76  65.1575 0  62.8125 0  L 0 0  L 0 28  L 62.8125 28  C 65.1575 28  67 26.24  67 24  Z " fill-rule="evenodd" />
    </mask>
  </defs>
  <g transform="matrix(1 0 0 1 -644 -206 )">
    <path d="M 67 24  L 67 4  C 67 1.76  65.1575 0  62.8125 0  L 0 0  L 0 28  L 62.8125 28  C 65.1575 28  67 26.24  67 24  Z " fill-rule="nonzero" fill="#ffffff" stroke="none" transform="matrix(1 0 0 1 644 206 )" />
    <path d="M 67 24  L 67 4  C 67 1.76  65.1575 0  62.8125 0  L 0 0  L 0 28  L 62.8125 28  C 65.1575 28  67 26.24  67 24  Z " stroke-width="2" stroke="#d9d9d9" fill="none" transform="matrix(1 0 0 1 644 206 )" mask="url(#clip105)" />
  </g>
</svg>