<?xml version="1.0" encoding="utf-8"?>
<svg version="1.1" xmlns:xlink="http://www.w3.org/1999/xlink" width="22px" height="22px" xmlns="http://www.w3.org/2000/svg">
  <g transform="matrix(1 0 0 1 -408 -164 )">
    <path d="M 419 165  C 424.6 165  429 169.4  429 175  C 429 180.6  424.6 185  419 185  C 413.4 185  409 180.6  409 175  C 409 169.4  413.4 165  419 165  Z " fill-rule="nonzero" fill="#108ee9" stroke="none" />
    <path d="M 419 165  C 424.6 165  429 169.4  429 175  C 429 180.6  424.6 185  419 185  C 413.4 185  409 180.6  409 175  C 409 169.4  413.4 165  419 165  Z " stroke-width="2" stroke="#108ee9" fill="none" />
  </g>
</svg>