<?xml version="1.0" encoding="utf-8"?>
<svg version="1.1" xmlns:xlink="http://www.w3.org/1999/xlink" width="22px" height="22px" xmlns="http://www.w3.org/2000/svg">
  <g transform="matrix(1 0 0 1 -711 -164 )">
    <path d="M 722 165  C 727.6 165  732 169.4  732 175  C 732 180.6  727.6 185  722 185  C 716.4 185  712 180.6  712 175  C 712 169.4  716.4 165  722 165  Z " fill-rule="nonzero" fill="#ffffff" stroke="none" fill-opacity="0" />
    <path d="M 722 165  C 727.6 165  732 169.4  732 175  C 732 180.6  727.6 185  722 185  C 716.4 185  712 180.6  712 175  C 712 169.4  716.4 165  722 165  Z " stroke-width="2" stroke="#cccccc" fill="none" />
  </g>
</svg>