<?xml version="1.0" encoding="utf-8"?>
<svg version="1.1" xmlns:xlink="http://www.w3.org/1999/xlink" width="22px" height="22px" xmlns="http://www.w3.org/2000/svg">
  <g transform="matrix(1 0 0 1 -100 -164 )">
    <path d="M 111 165  C 116.6 165  121 169.4  121 175  C 121 180.6  116.6 185  111 185  C 105.4 185  101 180.6  101 175  C 101 169.4  105.4 165  111 165  Z " fill-rule="nonzero" fill="#ffffff" stroke="none" />
    <path d="M 111 165  C 116.6 165  121 169.4  121 175  C 121 180.6  116.6 185  111 185  C 105.4 185  101 180.6  101 175  C 101 169.4  105.4 165  111 165  Z " stroke-width="2" stroke="#108ee9" fill="none" />
  </g>
</svg>