<?xml version="1.0" encoding="utf-8"?>
<svg version="1.1" xmlns:xlink="http://www.w3.org/1999/xlink" width="28px" height="28px" xmlns="http://www.w3.org/2000/svg">
  <g transform="matrix(1 0 0 1 -100 -100 )">
    <path d="M 114 101  C 121.28 101  127 106.72  127 114  C 127 121.28  121.28 127  114 127  C 106.72 127  101 121.28  101 114  C 101 106.72  106.72 101  114 101  Z " fill-rule="nonzero" fill="#ffffff" stroke="none" />
    <path d="M 114 101  C 121.28 101  127 106.72  127 114  C 127 121.28  121.28 127  114 127  C 106.72 127  101 121.28  101 114  C 101 106.72  106.72 101  114 101  Z " stroke-width="2" stroke="#108ee9" fill="none" />
  </g>
</svg>