<?xml version="1.0" encoding="utf-8"?>
<svg version="1.1" xmlns:xlink="http://www.w3.org/1999/xlink" width="28px" height="28px" xmlns="http://www.w3.org/2000/svg">
  <g transform="matrix(1 0 0 1 -421 -100 )">
    <path d="M 435 101  C 442.28 101  448 106.72  448 114  C 448 121.28  442.28 127  435 127  C 427.72 127  422 121.28  422 114  C 422 106.72  427.72 101  435 101  Z " fill-rule="nonzero" fill="#108ee9" stroke="none" />
    <path d="M 435 101  C 442.28 101  448 106.72  448 114  C 448 121.28  442.28 127  435 127  C 427.72 127  422 121.28  422 114  C 422 106.72  427.72 101  435 101  Z " stroke-width="2" stroke="#108ee9" fill="none" />
  </g>
</svg>