<?xml version="1.0" encoding="utf-8"?>
<svg version="1.1" xmlns:xlink="http://www.w3.org/1999/xlink" width="28px" height="28px" xmlns="http://www.w3.org/2000/svg">
  <g transform="matrix(1 0 0 1 -741 -100 )">
    <path d="M 755 101  C 762.28 101  768 106.72  768 114  C 768 121.28  762.28 127  755 127  C 747.72 127  742 121.28  742 114  C 742 106.72  747.72 101  755 101  Z " fill-rule="nonzero" fill="#ffffff" stroke="none" fill-opacity="0" />
    <path d="M 755 101  C 762.28 101  768 106.72  768 114  C 768 121.28  762.28 127  755 127  C 747.72 127  742 121.28  742 114  C 742 106.72  747.72 101  755 101  Z " stroke-width="2" stroke="#cccccc" fill="none" />
  </g>
</svg>