<?xml version="1.0" encoding="utf-8"?>
<svg version="1.1" xmlns:xlink="http://www.w3.org/1999/xlink" width="11px" height="12px" xmlns="http://www.w3.org/2000/svg">
  <g transform="matrix(1 0 0 1 -115 -193 )">
    <path d="M 0.861727271484375 2.60627272851563  L 4.68118181445313 0.69654545703125  C 5.08245663983747 0.497209205791717  5.55390698906878 0.497209205791718  5.95518181445313 0.69654545703125  L 9.77336364257813 2.60563635742187  C 10.2600498909468 2.84740129781949  10.5679238434693 3.34384497415671  10.5681818144531 3.88727272851563  L 10.5681818144531 8.436  C 10.5679228155342 8.97891437425946  10.2606228038508 9.47498087111678  9.77463635742187 9.717  L 5.95645454296875 11.6260909140625  C 5.55326468643918 11.8277533177164  5.07864439949833 11.8277533177164  4.67545454296875 11.6260909140625  L 0.856 9.71636364257813  C 0.370589236722461 9.47225753564618  0.0653657632252074 8.97423538789852  0.0681818144531245 8.4309090859375  L 0.0681818144531245 3.88727272851563  C 0.0684408133720016 3.34435835425617  0.375740825055477 2.84829185739885  0.861727271484375 2.60627272851563  Z M 1.0220909140625 4.068  L 1.0220909140625 8.4340909140625  C 1.02088950279709 8.61508866897091  1.12217753869374 8.78119119530376  1.28363635742187 8.863  L 4.8409090859375 10.6416363574219  L 4.8409090859375 5.9770909140625  L 1.02272727148438 4.068  Z M 9.613 4.068  L 5.79481818554688 5.9770909140625  L 5.79481818554688 10.6390909140625  L 9.3489090859375 8.86236364257812  C 9.48950866233555 8.79260231612677  9.58682169955986 8.65817232554168  9.60918181445313 8.50281818554688  L 9.61363635742188 8.436  L 9.61363635742188 4.068  Z M 9.02118181445313 3.29545454296875  L 5.53072727148438 1.55118181445312  C 5.39720157483986 1.48501704043161  5.24043478258201 1.48501704043161  5.1069090859375 1.55118181445312  L 1.61454545703125 3.2960909140625  L 5.31818181445313 5.14727272851563  L 9.02118181445313 3.29545454296875  Z " fill-rule="nonzero" fill="#979797" stroke="none" transform="matrix(1 0 0 1 115 193 )" />
  </g>
</svg>