<?xml version="1.0" encoding="utf-8"?>
<svg version="1.1" xmlns:xlink="http://www.w3.org/1999/xlink" width="423px" height="50px" xmlns="http://www.w3.org/2000/svg">
  <g transform="matrix(1 0 0 1 -2018 -383 )">
    <path d="M 2019 389  A 5 5 0 0 1 2024 384 L 2435 384  A 5 5 0 0 1 2440 389 L 2440 427  A 5 5 0 0 1 2435 432 L 2024 432  A 5 5 0 0 1 2019 427 L 2019 389  Z " fill-rule="nonzero" fill="#ffffff" stroke="none" />
    <path d="M 2018.5 389  A 5.5 5.5 0 0 1 2024 383.5 L 2435 383.5  A 5.5 5.5 0 0 1 2440.5 389 L 2440.5 427  A 5.5 5.5 0 0 1 2435 432.5 L 2024 432.5  A 5.5 5.5 0 0 1 2018.5 427 L 2018.5 389  Z " stroke-width="1" stroke="#b4ccee" fill="none" stroke-opacity="0.458823529411765" />
  </g>
</svg>