<?xml version="1.0" encoding="utf-8"?>
<svg version="1.1" xmlns:xlink="http://www.w3.org/1999/xlink" width="14px" height="14px" xmlns="http://www.w3.org/2000/svg">
  <g transform="matrix(1 0 0 1 -2018 -470 )">
    <path d="M 2025 470  C 2028.92 470  2032 473.08  2032 477  C 2032 480.92  2028.92 484  2025 484  C 2021.08 484  2018 480.92  2018 477  C 2018 473.08  2021.08 470  2025 470  Z " fill-rule="nonzero" fill="#ffffff" stroke="none" />
    <path d="M 2025 470.5  C 2028.64 470.5  2031.5 473.36  2031.5 477  C 2031.5 480.64  2028.64 483.5  2025 483.5  C 2021.36 483.5  2018.5 480.64  2018.5 477  C 2018.5 473.36  2021.36 470.5  2025 470.5  Z " stroke-width="1" stroke="#797979" fill="none" />
  </g>
</svg>