<?xml version="1.0" encoding="utf-8"?>
<svg version="1.1" xmlns:xlink="http://www.w3.org/1999/xlink" width="88px" height="88px" xmlns="http://www.w3.org/2000/svg">
  <g transform="matrix(1 0 0 1 -133 -280 )">
    <path d="M 134 284  A 3 3 0 0 1 137 281 L 217 281  A 3 3 0 0 1 220 284 L 220 364  A 3 3 0 0 1 217 367 L 137 367  A 3 3 0 0 1 134 364 L 134 284  Z " fill-rule="nonzero" fill="#f2f2f2" stroke="none" />
    <path d="M 133.5 284  A 3.5 3.5 0 0 1 137 280.5 L 217 280.5  A 3.5 3.5 0 0 1 220.5 284 L 220.5 364  A 3.5 3.5 0 0 1 217 367.5 L 137 367.5  A 3.5 3.5 0 0 1 133.5 364 L 133.5 284  Z " stroke-width="1" stroke-dasharray="3,1" stroke="#d8d8d8" fill="none" stroke-dashoffset="0.5" />
  </g>
</svg>