<?xml version="1.0" encoding="utf-8"?>
<svg version="1.1" xmlns:xlink="http://www.w3.org/1999/xlink" width="380px" height="200px" xmlns="http://www.w3.org/2000/svg">
  <g transform="matrix(1 0 0 1 -134 -426 )">
    <path d="M 135 432  A 5 5 0 0 1 140 427 L 508 427  A 5 5 0 0 1 513 432 L 513 620  A 5 5 0 0 1 508 625 L 140 625  A 5 5 0 0 1 135 620 L 135 432  Z " fill-rule="nonzero" fill="#fbfbfb" stroke="none" />
    <path d="M 134.5 432  A 5.5 5.5 0 0 1 140 426.5 L 508 426.5  A 5.5 5.5 0 0 1 513.5 432 L 513.5 620  A 5.5 5.5 0 0 1 508 625.5 L 140 625.5  A 5.5 5.5 0 0 1 134.5 620 L 134.5 432  Z " stroke-width="1" stroke-dasharray="9,4" stroke="#d9d9d9" fill="none" stroke-dashoffset="0.5" />
  </g>
</svg>