<?xml version="1.0" encoding="utf-8"?>
<svg version="1.1" xmlns:xlink="http://www.w3.org/1999/xlink" width="480px" height="32px" xmlns="http://www.w3.org/2000/svg">
  <g transform="matrix(1 0 0 1 -100 -211 )">
    <path d="M 101 215  A 3 3 0 0 1 104 212 L 576 212  A 3 3 0 0 1 579 215 L 579 239  A 3 3 0 0 1 576 242 L 104 242  A 3 3 0 0 1 101 239 L 101 215  Z " fill-rule="nonzero" fill="#ffffff" stroke="none" />
    <path d="M 100.5 215  A 3.5 3.5 0 0 1 104 211.5 L 576 211.5  A 3.5 3.5 0 0 1 579.5 215 L 579.5 239  A 3.5 3.5 0 0 1 576 242.5 L 104 242.5  A 3.5 3.5 0 0 1 100.5 239 L 100.5 215  Z " stroke-width="1" stroke-dasharray="9,4" stroke="#e9e9e9" fill="none" stroke-dashoffset="0.5" />
  </g>
</svg>