<?xml version="1.0" encoding="utf-8"?>
<svg version="1.1" xmlns:xlink="http://www.w3.org/1999/xlink" width="12px" height="12px" xmlns="http://www.w3.org/2000/svg">
  <g transform="matrix(1 0 0 1 -1750 -1606 )">
    <path d="M 11.999976 5.999988  C 11.999976 9.3136853671875  9.3136853671875 12  5.999988 12  C 2.6862906328125 12  2.4E-05 9.3136853671875  2.4E-05 5.999988  C 2.4E-05 2.6862906328125  2.6862906328125 0  5.999988 0  C 9.3137093671875 0  11.999976 2.6862906328125  11.999976 5.999988  Z M 11.2499775 5.999988  C 11.2499775 3.10050580078125  8.89949419921875 0.7500225  5.999988 0.7500225  C 3.10050580078125 0.7500225  0.7500225 3.10050580078125  0.7500225 5.999988  C 0.7500225 8.89947019921875  3.10050580078125 11.2499775  5.999988 11.2499775  C 8.89949419921875 11.2499775  11.2499775 8.89947019921875  11.2499775 5.999988  Z M 8.62498275 5.999988  C 8.62498275 6.20708358984375  8.45710308984375 6.37498725  8.2499835 6.37498725  L 6.37496325 6.37498725  L 6.37496325 8.2500075  C 6.37496325 8.45707908984375  6.20708358984375 8.62495875  5.999964 8.62495875  C 5.79286841015625 8.62495875  5.62496475 8.45707908984375  5.62496475 8.2500075  L 5.62496475 6.37498725  L 3.7499925 6.37498725  C 3.54289691015625 6.37498725  3.37496925 6.20708358984375  3.37496925 5.999988  C 3.37496925 5.79291641015625  3.54289691015625 5.62501275  3.7499925 5.62501275  L 5.62496475 5.62501275  L 5.62496475 3.7499685  C 5.62496475 3.54287291015625  5.79289241015625 3.37501725  5.999964 3.37501725  C 6.20705958984375 3.37501725  6.37496325 3.54284891015625  6.37496325 3.7499685  L 6.37496325 5.62501275  L 8.2499835 5.62501275  C 8.45707908984375 5.62501275  8.62498275 5.79291641015625  8.62498275 5.999988  Z " fill-rule="nonzero" fill="#1f7aff" stroke="none" transform="matrix(1 0 0 1 1750 1606 )" />
  </g>
</svg>