<?xml version="1.0" encoding="utf-8"?>
<svg version="1.1" xmlns:xlink="http://www.w3.org/1999/xlink" width="10px" height="158px" preserveAspectRatio="xMidYMin meet" viewBox="2691 1552  8 158" xmlns="http://www.w3.org/2000/svg">
  <path d="M 1756 1655  L 1756 1650  A 5 5 0 0 0 1751 1645 L 1743 1645  A 5 5 0 0 1 1738 1640 L 1738 1562  A 5 5 0 0 1 1743 1557 L 2690 1557  A 5 5 0 0 1 2695 1562 L 2695 1700  A 5 5 0 0 0 2700 1705 L 2742 1705  " stroke-width="2" stroke="#1f7aff" fill="none" />
  <path d="M 2736.89289321881 1700.70710678119  L 2741.18578643763 1705  L 2736.89289321881 1709.29289321881  L 2738.30710678119 1710.70710678119  L 2743.30710678119 1705.70710678119  L 2744.01421356237 1705  L 2743.30710678119 1704.29289321881  L 2738.30710678119 1699.29289321881  L 2736.89289321881 1700.70710678119  Z " fill-rule="nonzero" fill="#1f7aff" stroke="none" />
</svg>