<?xml version="1.0" encoding="utf-8"?>
<svg version="1.1" xmlns:xlink="http://www.w3.org/1999/xlink" width="12px" height="13px" xmlns="http://www.w3.org/2000/svg">
  <g transform="matrix(1 0 0 1 -2928 -1700 )">
    <path d="M 6 11.6724137890625  C 8.8566453046875 11.6724137890625  11.1724137890625 9.3566453046875  11.1724137890625 6.5  C 11.1724137890625 3.6433546953125  8.8566453046875 1.3275862109375  6 1.3275862109375  C 3.1433546953125 1.3275862109375  0.8275862109375 3.6433546953125  0.8275862109375 6.5  C 0.8275862109375 9.3566453046875  3.1433546953125 11.6724137890625  6 11.6724137890625  Z M 6 12.5  C 2.686291453125 12.5  0 9.813708546875  0 6.5  C 0 3.186291453125  2.686291453125 0.5  6 0.5  C 9.313708546875 0.5  12 3.186291453125  12 6.5  C 12 9.813708546875  9.313708546875 12.5  6 12.5  Z M 3.10380889453125 6.91379310546875  C 2.87507813671875 6.91379310546875  2.68965516796875 6.73012483203125  2.68965516796875 6.5  C 2.68965516796875 6.271468484375  2.87364041015625 6.08620689453125  3.10380889453125 6.08620689453125  L 8.89619110546875 6.08620689453125  C 9.12492186328125 6.08620689453125  9.31034483203125 6.26987516796875  9.31034483203125 6.5  C 9.31034483203125 6.728531515625  9.12635958984375 6.91379310546875  8.89619110546875 6.91379310546875  L 3.10380889453125 6.91379310546875  Z " fill-rule="nonzero" fill="#d9001b" stroke="none" transform="matrix(1 0 0 1 2928 1700 )" />
  </g>
</svg>